<svg width="16" height="16" viewBox="0 0 16 16" fill="none" xmlns="http://www.w3.org/2000/svg">
<g clip-path="url(#clip0_4_2)">
<path d="M13 0H3C1.34315 0 0 1.34315 0 3V13C0 14.6569 1.34315 16 3 16H13C14.6569 16 16 14.6569 16 13V3C16 1.34315 14.6569 0 13 0Z" fill="url(#paint0_linear_4_2)"/>
<path d="M5 6.5C5.82843 6.5 6.5 5.82843 6.5 5C6.5 4.17157 5.82843 3.5 5 3.5C4.17157 3.5 3.5 4.17157 3.5 5C3.5 5.82843 4.17157 6.5 5 6.5Z" fill="white" fill-opacity="0.8"/>
<path d="M8 6.8C8.99411 6.8 9.8 5.99411 9.8 5C9.8 4.00589 8.99411 3.2 8 3.2C7.00589 3.2 6.2 4.00589 6.2 5C6.2 5.99411 7.00589 6.8 8 6.8Z" fill="white"/>
<path d="M11 6.5C11.8284 6.5 12.5 5.82843 12.5 5C12.5 4.17157 11.8284 3.5 11 3.5C10.1716 3.5 9.5 4.17157 9.5 5C9.5 5.82843 10.1716 6.5 11 6.5Z" fill="white" fill-opacity="0.8"/>
<path d="M5 9.8C5.99411 9.8 6.8 8.99411 6.8 8C6.8 7.00589 5.99411 6.2 5 6.2C4.00589 6.2 3.2 7.00589 3.2 8C3.2 8.99411 4.00589 9.8 5 9.8Z" fill="white"/>
<path d="M8 9.5C8.82843 9.5 9.5 8.82843 9.5 8C9.5 7.17157 8.82843 6.5 8 6.5C7.17157 6.5 6.5 7.17157 6.5 8C6.5 8.82843 7.17157 9.5 8 9.5Z" fill="white" fill-opacity="0.8"/>
<path d="M11 9.8C11.9941 9.8 12.8 8.99411 12.8 8C12.8 7.00589 11.9941 6.2 11 6.2C10.0059 6.2 9.2 7.00589 9.2 8C9.2 8.99411 10.0059 9.8 11 9.8Z" fill="white"/>
<path d="M5 12.5C5.82843 12.5 6.5 11.8284 6.5 11C6.5 10.1716 5.82843 9.5 5 9.5C4.17157 9.5 3.5 10.1716 3.5 11C3.5 11.8284 4.17157 12.5 5 12.5Z" fill="white" fill-opacity="0.8"/>
<path d="M8 12.8C8.99411 12.8 9.8 11.9941 9.8 11C9.8 10.0059 8.99411 9.2 8 9.2C7.00589 9.2 6.2 10.0059 6.2 11C6.2 11.9941 7.00589 12.8 8 12.8Z" fill="white"/>
<path d="M11 12.5C11.8284 12.5 12.5 11.8284 12.5 11C12.5 10.1716 11.8284 9.5 11 9.5C10.1716 9.5 9.5 10.1716 9.5 11C9.5 11.8284 10.1716 12.5 11 12.5Z" fill="white" fill-opacity="0.8"/>
</g>
<defs>
<linearGradient id="paint0_linear_4_2" x1="0" y1="0" x2="1600" y2="1600" gradientUnits="userSpaceOnUse">
<stop stop-color="#FF6B35"/>
<stop offset="1" stop-color="#FF8C42"/>
</linearGradient>
<clipPath id="clip0_4_2">
<rect width="16" height="16" fill="white"/>
</clipPath>
</defs>
</svg>
