<svg width="48" height="48" viewBox="0 0 48 48" fill="none" xmlns="http://www.w3.org/2000/svg">
<g clip-path="url(#clip0_4_14)">
<path d="M38 0H10C4.47715 0 0 4.47715 0 10V38C0 43.5228 4.47715 48 10 48H38C43.5228 48 48 43.5228 48 38V10C48 4.47715 43.5228 0 38 0Z" fill="url(#paint0_linear_4_14)"/>
<path d="M12 14.5C13.3807 14.5 14.5 13.3807 14.5 12C14.5 10.6193 13.3807 9.5 12 9.5C10.6193 9.5 9.5 10.6193 9.5 12C9.5 13.3807 10.6193 14.5 12 14.5Z" fill="white" fill-opacity="0.4"/>
<path d="M20 15C21.6569 15 23 13.6569 23 12C23 10.3431 21.6569 9 20 9C18.3431 9 17 10.3431 17 12C17 13.6569 18.3431 15 20 15Z" fill="white" fill-opacity="0.95"/>
<path d="M28 14.5C29.3807 14.5 30.5 13.3807 30.5 12C30.5 10.6193 29.3807 9.5 28 9.5C26.6193 9.5 25.5 10.6193 25.5 12C25.5 13.3807 26.6193 14.5 28 14.5Z" fill="white" fill-opacity="0.4"/>
<path d="M36 15C37.6569 15 39 13.6569 39 12C39 10.3431 37.6569 9 36 9C34.3431 9 33 10.3431 33 12C33 13.6569 34.3431 15 36 15Z" fill="white" fill-opacity="0.95"/>
<path d="M12 23C13.6569 23 15 21.6569 15 20C15 18.3431 13.6569 17 12 17C10.3431 17 9 18.3431 9 20C9 21.6569 10.3431 23 12 23Z" fill="white" fill-opacity="0.95"/>
<path d="M20 22.5C21.3807 22.5 22.5 21.3807 22.5 20C22.5 18.6193 21.3807 17.5 20 17.5C18.6193 17.5 17.5 18.6193 17.5 20C17.5 21.3807 18.6193 22.5 20 22.5Z" fill="white" fill-opacity="0.4"/>
<path d="M28 23C29.6569 23 31 21.6569 31 20C31 18.3431 29.6569 17 28 17C26.3431 17 25 18.3431 25 20C25 21.6569 26.3431 23 28 23Z" fill="white" fill-opacity="0.95"/>
<path d="M36 22.5C37.3807 22.5 38.5 21.3807 38.5 20C38.5 18.6193 37.3807 17.5 36 17.5C34.6193 17.5 33.5 18.6193 33.5 20C33.5 21.3807 34.6193 22.5 36 22.5Z" fill="white" fill-opacity="0.4"/>
<path d="M12 30.5C13.3807 30.5 14.5 29.3807 14.5 28C14.5 26.6193 13.3807 25.5 12 25.5C10.6193 25.5 9.5 26.6193 9.5 28C9.5 29.3807 10.6193 30.5 12 30.5Z" fill="white" fill-opacity="0.4"/>
<path d="M20 31C21.6569 31 23 29.6569 23 28C23 26.3431 21.6569 25 20 25C18.3431 25 17 26.3431 17 28C17 29.6569 18.3431 31 20 31Z" fill="white" fill-opacity="0.95"/>
<path d="M28 30.5C29.3807 30.5 30.5 29.3807 30.5 28C30.5 26.6193 29.3807 25.5 28 25.5C26.6193 25.5 25.5 26.6193 25.5 28C25.5 29.3807 26.6193 30.5 28 30.5Z" fill="white" fill-opacity="0.4"/>
<path d="M36 30.5C37.3807 30.5 38.5 29.3807 38.5 28C38.5 26.6193 37.3807 25.5 36 25.5C34.6193 25.5 33.5 26.6193 33.5 28C33.5 29.3807 34.6193 30.5 36 30.5Z" fill="white" fill-opacity="0.4"/>
<path d="M12 39C13.6569 39 15 37.6569 15 36C15 34.3431 13.6569 33 12 33C10.3431 33 9 34.3431 9 36C9 37.6569 10.3431 39 12 39Z" fill="white" fill-opacity="0.95"/>
<path d="M20 38.5C21.3807 38.5 22.5 37.3807 22.5 36C22.5 34.6193 21.3807 33.5 20 33.5C18.6193 33.5 17.5 34.6193 17.5 36C17.5 37.3807 18.6193 38.5 20 38.5Z" fill="white" fill-opacity="0.4"/>
<path d="M28 39C29.6569 39 31 37.6569 31 36C31 34.3431 29.6569 33 28 33C26.3431 33 25 34.3431 25 36C25 37.6569 26.3431 39 28 39Z" fill="white" fill-opacity="0.95"/>
<path d="M36 38.5C37.3807 38.5 38.5 37.3807 38.5 36C38.5 34.6193 37.3807 33.5 36 33.5C34.6193 33.5 33.5 34.6193 33.5 36C33.5 37.3807 34.6193 38.5 36 38.5Z" fill="white" fill-opacity="0.4"/>
</g>
<defs>
<linearGradient id="paint0_linear_4_14" x1="0" y1="0" x2="4800" y2="4800" gradientUnits="userSpaceOnUse">
<stop stop-color="#FF6B35"/>
<stop offset="1" stop-color="#FF8C42"/>
</linearGradient>
<clipPath id="clip0_4_14">
<rect width="48" height="48" fill="white"/>
</clipPath>
</defs>
</svg>
