<svg width="128" height="128" viewBox="0 0 128 128" fill="none" xmlns="http://www.w3.org/2000/svg">
<g clip-path="url(#clip0_1_2)">
<path d="M100.267 0H27.7333C12.4166 0 0 12.4166 0 27.7333V100.267C0 115.583 12.4166 128 27.7333 128H100.267C115.583 128 128 115.583 128 100.267V27.7333C128 12.4166 115.583 0 100.267 0Z" fill="url(#paint0_linear_1_2)"/>
<path d="M32 36.2667C34.3564 36.2667 36.2667 34.3564 36.2667 32C36.2667 29.6436 34.3564 27.7333 32 27.7333C29.6436 27.7333 27.7333 29.6436 27.7333 32C27.7333 34.3564 29.6436 36.2667 32 36.2667Z" fill="white" fill-opacity="0.8"/>
<path d="M48 37.12C50.8277 37.12 53.12 34.8277 53.12 32C53.12 29.1723 50.8277 26.88 48 26.88C45.1723 26.88 42.88 29.1723 42.88 32C42.88 34.8277 45.1723 37.12 48 37.12Z" fill="white"/>
<path d="M64 36.2667C66.3564 36.2667 68.2667 34.3564 68.2667 32C68.2667 29.6436 66.3564 27.7333 64 27.7333C61.6436 27.7333 59.7333 29.6436 59.7333 32C59.7333 34.3564 61.6436 36.2667 64 36.2667Z" fill="white" fill-opacity="0.8"/>
<path d="M80 37.12C82.8277 37.12 85.12 34.8277 85.12 32C85.12 29.1723 82.8277 26.88 80 26.88C77.1723 26.88 74.88 29.1723 74.88 32C74.88 34.8277 77.1723 37.12 80 37.12Z" fill="white"/>
<path d="M96 36.2667C98.3564 36.2667 100.267 34.3564 100.267 32C100.267 29.6436 98.3564 27.7333 96 27.7333C93.6436 27.7333 91.7333 29.6436 91.7333 32C91.7333 34.3564 93.6436 36.2667 96 36.2667Z" fill="white" fill-opacity="0.8"/>
<path d="M32 53.12C34.8277 53.12 37.12 50.8277 37.12 48C37.12 45.1723 34.8277 42.88 32 42.88C29.1723 42.88 26.88 45.1723 26.88 48C26.88 50.8277 29.1723 53.12 32 53.12Z" fill="white"/>
<path d="M48 52.2667C50.3564 52.2667 52.2667 50.3564 52.2667 48C52.2667 45.6436 50.3564 43.7333 48 43.7333C45.6436 43.7333 43.7333 45.6436 43.7333 48C43.7333 50.3564 45.6436 52.2667 48 52.2667Z" fill="white" fill-opacity="0.8"/>
<path d="M64 53.12C66.8277 53.12 69.12 50.8277 69.12 48C69.12 45.1723 66.8277 42.88 64 42.88C61.1723 42.88 58.88 45.1723 58.88 48C58.88 50.8277 61.1723 53.12 64 53.12Z" fill="white"/>
<path d="M80 52.2667C82.3564 52.2667 84.2667 50.3564 84.2667 48C84.2667 45.6436 82.3564 43.7333 80 43.7333C77.6436 43.7333 75.7333 45.6436 75.7333 48C75.7333 50.3564 77.6436 52.2667 80 52.2667Z" fill="white" fill-opacity="0.8"/>
<path d="M96 52.2667C98.3564 52.2667 100.267 50.3564 100.267 48C100.267 45.6436 98.3564 43.7333 96 43.7333C93.6436 43.7333 91.7333 45.6436 91.7333 48C91.7333 50.3564 93.6436 52.2667 96 52.2667Z" fill="white" fill-opacity="0.8"/>
<path d="M32 69.12C34.8277 69.12 37.12 66.8277 37.12 64C37.12 61.1723 34.8277 58.88 32 58.88C29.1723 58.88 26.88 61.1723 26.88 64C26.88 66.8277 29.1723 69.12 32 69.12Z" fill="white"/>
<path d="M48 68.2667C50.3564 68.2667 52.2667 66.3564 52.2667 64C52.2667 61.6436 50.3564 59.7333 48 59.7333C45.6436 59.7333 43.7333 61.6436 43.7333 64C43.7333 66.3564 45.6436 68.2667 48 68.2667Z" fill="white" fill-opacity="0.8"/>
<path d="M64 69.12C66.8277 69.12 69.12 66.8277 69.12 64C69.12 61.1723 66.8277 58.88 64 58.88C61.1723 58.88 58.88 61.1723 58.88 64C58.88 66.8277 61.1723 69.12 64 69.12Z" fill="white"/>
<path d="M80 68.2667C82.3564 68.2667 84.2667 66.3564 84.2667 64C84.2667 61.6436 82.3564 59.7333 80 59.7333C77.6436 59.7333 75.7333 61.6436 75.7333 64C75.7333 66.3564 77.6436 68.2667 80 68.2667Z" fill="white" fill-opacity="0.8"/>
<path d="M96 69.12C98.8277 69.12 101.12 66.8277 101.12 64C101.12 61.1723 98.8277 58.88 96 58.88C93.1723 58.88 90.88 61.1723 90.88 64C90.88 66.8277 93.1723 69.12 96 69.12Z" fill="white"/>
<path d="M32 84.2667C34.3564 84.2667 36.2667 82.3564 36.2667 80C36.2667 77.6436 34.3564 75.7333 32 75.7333C29.6436 75.7333 27.7333 77.6436 27.7333 80C27.7333 82.3564 29.6436 84.2667 32 84.2667Z" fill="white" fill-opacity="0.8"/>
<path d="M48 85.12C50.8277 85.12 53.12 82.8277 53.12 80C53.12 77.1723 50.8277 74.88 48 74.88C45.1723 74.88 42.88 77.1723 42.88 80C42.88 82.8277 45.1723 85.12 48 85.12Z" fill="white"/>
<path d="M64 84.2667C66.3564 84.2667 68.2667 82.3564 68.2667 80C68.2667 77.6436 66.3564 75.7333 64 75.7333C61.6436 75.7333 59.7333 77.6436 59.7333 80C59.7333 82.3564 61.6436 84.2667 64 84.2667Z" fill="white" fill-opacity="0.8"/>
<path d="M80 84.2667C82.3564 84.2667 84.2667 82.3564 84.2667 80C84.2667 77.6436 82.3564 75.7333 80 75.7333C77.6436 75.7333 75.7333 77.6436 75.7333 80C75.7333 82.3564 77.6436 84.2667 80 84.2667Z" fill="white" fill-opacity="0.8"/>
<path d="M96 84.2667C98.3564 84.2667 100.267 82.3564 100.267 80C100.267 77.6436 98.3564 75.7333 96 75.7333C93.6436 75.7333 91.7333 77.6436 91.7333 80C91.7333 82.3564 93.6436 84.2667 96 84.2667Z" fill="white" fill-opacity="0.8"/>
<path d="M32 101.12C34.8277 101.12 37.12 98.8277 37.12 96C37.12 93.1723 34.8277 90.88 32 90.88C29.1723 90.88 26.88 93.1723 26.88 96C26.88 98.8277 29.1723 101.12 32 101.12Z" fill="white"/>
<path d="M48 100.267C50.3564 100.267 52.2667 98.3564 52.2667 96C52.2667 93.6436 50.3564 91.7333 48 91.7333C45.6436 91.7333 43.7333 93.6436 43.7333 96C43.7333 98.3564 45.6436 100.267 48 100.267Z" fill="white" fill-opacity="0.8"/>
<path d="M64 101.12C66.8277 101.12 69.12 98.8277 69.12 96C69.12 93.1723 66.8277 90.88 64 90.88C61.1723 90.88 58.88 93.1723 58.88 96C58.88 98.8277 61.1723 101.12 64 101.12Z" fill="white"/>
<path d="M80 100.267C82.3564 100.267 84.2667 98.3564 84.2667 96C84.2667 93.6436 82.3564 91.7333 80 91.7333C77.6436 91.7333 75.7333 93.6436 75.7333 96C75.7333 98.3564 77.6436 100.267 80 100.267Z" fill="white" fill-opacity="0.8"/>
<path d="M96 101.12C98.8277 101.12 101.12 98.8277 101.12 96C101.12 93.1723 98.8277 90.88 96 90.88C93.1723 90.88 90.88 93.1723 90.88 96C90.88 98.8277 93.1723 101.12 96 101.12Z" fill="white"/>
</g>
<defs>
<linearGradient id="paint0_linear_1_2" x1="0" y1="0" x2="12800" y2="12800" gradientUnits="userSpaceOnUse">
<stop stop-color="#FF6B35"/>
<stop offset="1" stop-color="#FF8C42"/>
</linearGradient>
<clipPath id="clip0_1_2">
<rect width="128" height="128" fill="white"/>
</clipPath>
</defs>
</svg>
