<svg width="32" height="32" viewBox="0 0 32 32" fill="none" xmlns="http://www.w3.org/2000/svg">
<g clip-path="url(#clip0_4_33)">
<path d="M25.3333 0H6.66667C2.98477 0 0 2.98477 0 6.66667V25.3333C0 29.0152 2.98477 32 6.66667 32H25.3333C29.0152 32 32 29.0152 32 25.3333V6.66667C32 2.98477 29.0152 0 25.3333 0Z" fill="url(#paint0_linear_4_33)"/>
<path d="M8 9.66667C8.92047 9.66667 9.66667 8.92047 9.66667 8C9.66667 7.07952 8.92047 6.33333 8 6.33333C7.07953 6.33333 6.33333 7.07952 6.33333 8C6.33333 8.92047 7.07953 9.66667 8 9.66667Z" fill="white" fill-opacity="0.4"/>
<path d="M13.3333 10C14.4379 10 15.3333 9.10457 15.3333 8C15.3333 6.89543 14.4379 6 13.3333 6C12.2288 6 11.3333 6.89543 11.3333 8C11.3333 9.10457 12.2288 10 13.3333 10Z" fill="white" fill-opacity="0.95"/>
<path d="M18.6667 9.66667C19.5871 9.66667 20.3333 8.92047 20.3333 8C20.3333 7.07952 19.5871 6.33333 18.6667 6.33333C17.7462 6.33333 17 7.07952 17 8C17 8.92047 17.7462 9.66667 18.6667 9.66667Z" fill="white" fill-opacity="0.4"/>
<path d="M24 10C25.1046 10 26 9.10457 26 8C26 6.89543 25.1046 6 24 6C22.8954 6 22 6.89543 22 8C22 9.10457 22.8954 10 24 10Z" fill="white" fill-opacity="0.95"/>
<path d="M8 15.3333C9.10457 15.3333 10 14.4379 10 13.3333C10 12.2288 9.10457 11.3333 8 11.3333C6.89543 11.3333 6 12.2288 6 13.3333C6 14.4379 6.89543 15.3333 8 15.3333Z" fill="white" fill-opacity="0.95"/>
<path d="M13.3333 15C14.2538 15 15 14.2538 15 13.3333C15 12.4129 14.2538 11.6667 13.3333 11.6667C12.4129 11.6667 11.6667 12.4129 11.6667 13.3333C11.6667 14.2538 12.4129 15 13.3333 15Z" fill="white" fill-opacity="0.4"/>
<path d="M18.6667 15.3333C19.7712 15.3333 20.6667 14.4379 20.6667 13.3333C20.6667 12.2288 19.7712 11.3333 18.6667 11.3333C17.5621 11.3333 16.6667 12.2288 16.6667 13.3333C16.6667 14.4379 17.5621 15.3333 18.6667 15.3333Z" fill="white" fill-opacity="0.95"/>
<path d="M24 15C24.9205 15 25.6667 14.2538 25.6667 13.3333C25.6667 12.4129 24.9205 11.6667 24 11.6667C23.0795 11.6667 22.3333 12.4129 22.3333 13.3333C22.3333 14.2538 23.0795 15 24 15Z" fill="white" fill-opacity="0.4"/>
<path d="M8 20.3333C8.92047 20.3333 9.66667 19.5871 9.66667 18.6667C9.66667 17.7462 8.92047 17 8 17C7.07953 17 6.33333 17.7462 6.33333 18.6667C6.33333 19.5871 7.07953 20.3333 8 20.3333Z" fill="white" fill-opacity="0.4"/>
<path d="M13.3333 20.6667C14.4379 20.6667 15.3333 19.7712 15.3333 18.6667C15.3333 17.5621 14.4379 16.6667 13.3333 16.6667C12.2288 16.6667 11.3333 17.5621 11.3333 18.6667C11.3333 19.7712 12.2288 20.6667 13.3333 20.6667Z" fill="white" fill-opacity="0.95"/>
<path d="M18.6667 20.3333C19.5871 20.3333 20.3333 19.5871 20.3333 18.6667C20.3333 17.7462 19.5871 17 18.6667 17C17.7462 17 17 17.7462 17 18.6667C17 19.5871 17.7462 20.3333 18.6667 20.3333Z" fill="white" fill-opacity="0.4"/>
<path d="M24 20.3333C24.9205 20.3333 25.6667 19.5871 25.6667 18.6667C25.6667 17.7462 24.9205 17 24 17C23.0795 17 22.3333 17.7462 22.3333 18.6667C22.3333 19.5871 23.0795 20.3333 24 20.3333Z" fill="white" fill-opacity="0.4"/>
<path d="M8 26C9.10457 26 10 25.1046 10 24C10 22.8954 9.10457 22 8 22C6.89543 22 6 22.8954 6 24C6 25.1046 6.89543 26 8 26Z" fill="white" fill-opacity="0.95"/>
<path d="M13.3333 25.6667C14.2538 25.6667 15 24.9205 15 24C15 23.0795 14.2538 22.3333 13.3333 22.3333C12.4129 22.3333 11.6667 23.0795 11.6667 24C11.6667 24.9205 12.4129 25.6667 13.3333 25.6667Z" fill="white" fill-opacity="0.4"/>
<path d="M18.6667 26C19.7712 26 20.6667 25.1046 20.6667 24C20.6667 22.8954 19.7712 22 18.6667 22C17.5621 22 16.6667 22.8954 16.6667 24C16.6667 25.1046 17.5621 26 18.6667 26Z" fill="white" fill-opacity="0.95"/>
<path d="M24 25.6667C24.9205 25.6667 25.6667 24.9205 25.6667 24C25.6667 23.0795 24.9205 22.3333 24 22.3333C23.0795 22.3333 22.3333 23.0795 22.3333 24C22.3333 24.9205 23.0795 25.6667 24 25.6667Z" fill="white" fill-opacity="0.4"/>
</g>
<defs>
<linearGradient id="paint0_linear_4_33" x1="0" y1="0" x2="3200" y2="3200" gradientUnits="userSpaceOnUse">
<stop stop-color="#FF6B35"/>
<stop offset="1" stop-color="#FF8C42"/>
</linearGradient>
<clipPath id="clip0_4_33">
<rect width="32" height="32" fill="white"/>
</clipPath>
</defs>
</svg>
